<svg xmlns="http://www.w3.org/2000/svg" version="1.1" xmlns:xlink="http://www.w3.org/1999/xlink" xmlns:svgjs="http://svgjs.dev/svgjs" width="1440" height="560" preserveAspectRatio="none" viewBox="0 0 1440 560"><g mask="url(&quot;#SvgjsMask1093&quot;)" fill="none"><path d="M1008 553L757 302" stroke-width="6" stroke="url(&quot;#SvgjsLinearGradient1094&quot;)" stroke-linecap="round" class="BottomRight"></path><path d="M778 150L422 -206" stroke-width="8" stroke="url(&quot;#SvgjsLinearGradient1095&quot;)" stroke-linecap="round" class="TopLeft"></path><path d="M1142 6L1326 190" stroke-width="8" stroke="url(&quot;#SvgjsLinearGradient1094&quot;)" stroke-linecap="round" class="BottomRight"></path><path d="M537 62L867 392" stroke-width="8" stroke="url(&quot;#SvgjsLinearGradient1094&quot;)" stroke-linecap="round" class="BottomRight"></path><path d="M527 415L163 51" stroke-width="10" stroke="url(&quot;#SvgjsLinearGradient1095&quot;)" stroke-linecap="round" class="TopLeft"></path><path d="M117 310L290 483" stroke-width="6" stroke="url(&quot;#SvgjsLinearGradient1095&quot;)" stroke-linecap="round" class="TopLeft"></path><path d="M217 124L481 388" stroke-width="8" stroke="url(&quot;#SvgjsLinearGradient1094&quot;)" stroke-linecap="round" class="BottomRight"></path><path d="M544 300L963 719" stroke-width="6" stroke="url(&quot;#SvgjsLinearGradient1095&quot;)" stroke-linecap="round" class="TopLeft"></path><path d="M797 63L419 -315" stroke-width="10" stroke="url(&quot;#SvgjsLinearGradient1095&quot;)" stroke-linecap="round" class="TopLeft"></path><path d="M681 434L529 282" stroke-width="10" stroke="url(&quot;#SvgjsLinearGradient1094&quot;)" stroke-linecap="round" class="BottomRight"></path><path d="M1413 439L1149 175" stroke-width="8" stroke="url(&quot;#SvgjsLinearGradient1094&quot;)" stroke-linecap="round" class="BottomRight"></path><path d="M501 364L664 527" stroke-width="10" stroke="url(&quot;#SvgjsLinearGradient1095&quot;)" stroke-linecap="round" class="TopLeft"></path><path d="M71 85L-349 -335" stroke-width="10" stroke="url(&quot;#SvgjsLinearGradient1095&quot;)" stroke-linecap="round" class="TopLeft"></path><path d="M1190 559L1352 721" stroke-width="10" stroke="url(&quot;#SvgjsLinearGradient1094&quot;)" stroke-linecap="round" class="BottomRight"></path><path d="M1182 247L1455 520" stroke-width="10" stroke="url(&quot;#SvgjsLinearGradient1095&quot;)" stroke-linecap="round" class="TopLeft"></path><path d="M9 534L357 882" stroke-width="6" stroke="url(&quot;#SvgjsLinearGradient1095&quot;)" stroke-linecap="round" class="TopLeft"></path><path d="M1026 388L1403 765" stroke-width="8" stroke="url(&quot;#SvgjsLinearGradient1095&quot;)" stroke-linecap="round" class="TopLeft"></path><path d="M186 548L507 869" stroke-width="10" stroke="url(&quot;#SvgjsLinearGradient1094&quot;)" stroke-linecap="round" class="BottomRight"></path><path d="M231 510L56 335" stroke-width="8" stroke="url(&quot;#SvgjsLinearGradient1095&quot;)" stroke-linecap="round" class="TopLeft"></path><path d="M1419 187L1584 352" stroke-width="6" stroke="url(&quot;#SvgjsLinearGradient1094&quot;)" stroke-linecap="round" class="BottomRight"></path><path d="M351 165L502 316" stroke-width="10" stroke="url(&quot;#SvgjsLinearGradient1095&quot;)" stroke-linecap="round" class="TopLeft"></path><path d="M541 373L211 43" stroke-width="6" stroke="url(&quot;#SvgjsLinearGradient1095&quot;)" stroke-linecap="round" class="TopLeft"></path><path d="M1365 147L1731 513" stroke-width="10" stroke="url(&quot;#SvgjsLinearGradient1094&quot;)" stroke-linecap="round" class="BottomRight"></path><path d="M594 163L903 472" stroke-width="6" stroke="url(&quot;#SvgjsLinearGradient1094&quot;)" stroke-linecap="round" class="BottomRight"></path><path d="M1409 198L1127 -84" stroke-width="10" stroke="url(&quot;#SvgjsLinearGradient1094&quot;)" stroke-linecap="round" class="BottomRight"></path><path d="M539 531L747 739" stroke-width="8" stroke="url(&quot;#SvgjsLinearGradient1095&quot;)" stroke-linecap="round" class="TopLeft"></path><path d="M171 213L-182 -140" stroke-width="10" stroke="url(&quot;#SvgjsLinearGradient1094&quot;)" stroke-linecap="round" class="BottomRight"></path><path d="M1256 431L1650 825" stroke-width="10" stroke="url(&quot;#SvgjsLinearGradient1094&quot;)" stroke-linecap="round" class="BottomRight"></path><path d="M128 200L358 430" stroke-width="6" stroke="url(&quot;#SvgjsLinearGradient1095&quot;)" stroke-linecap="round" class="TopLeft"></path><path d="M1177 474L901 198" stroke-width="10" stroke="url(&quot;#SvgjsLinearGradient1094&quot;)" stroke-linecap="round" class="BottomRight"></path><path d="M866 447L1236 817" stroke-width="8" stroke="url(&quot;#SvgjsLinearGradient1095&quot;)" stroke-linecap="round" class="TopLeft"></path><path d="M975 14L1209 248" stroke-width="10" stroke="url(&quot;#SvgjsLinearGradient1095&quot;)" stroke-linecap="round" class="TopLeft"></path><path d="M549 98L930 479" stroke-width="6" stroke="url(&quot;#SvgjsLinearGradient1095&quot;)" stroke-linecap="round" class="TopLeft"></path><path d="M132 329L-182 15" stroke-width="10" stroke="url(&quot;#SvgjsLinearGradient1095&quot;)" stroke-linecap="round" class="TopLeft"></path><path d="M823 347L657 181" stroke-width="10" stroke="url(&quot;#SvgjsLinearGradient1094&quot;)" stroke-linecap="round" class="BottomRight"></path><path d="M734 217L366 -151" stroke-width="10" stroke="url(&quot;#SvgjsLinearGradient1094&quot;)" stroke-linecap="round" class="BottomRight"></path><path d="M1387 304L1612 529" stroke-width="8" stroke="url(&quot;#SvgjsLinearGradient1095&quot;)" stroke-linecap="round" class="TopLeft"></path><path d="M643 488L874 719" stroke-width="6" stroke="url(&quot;#SvgjsLinearGradient1094&quot;)" stroke-linecap="round" class="BottomRight"></path><path d="M1192 149L924 -119" stroke-width="6" stroke="url(&quot;#SvgjsLinearGradient1094&quot;)" stroke-linecap="round" class="BottomRight"></path></g><defs><mask id="SvgjsMask1093"><rect width="1440" height="560" fill="#ffffff"></rect></mask><linearGradient x1="0%" y1="0%" x2="100%" y2="100%" id="SvgjsLinearGradient1094"><stop stop-color="rgba(28, 83, 142, 0)" offset="0"></stop><stop stop-color="#1c538e" offset="1"></stop></linearGradient><linearGradient x1="100%" y1="100%" x2="0%" y2="0%" id="SvgjsLinearGradient1095"><stop stop-color="rgba(28, 83, 142, 0)" offset="0"></stop><stop stop-color="#1c538e" offset="1"></stop></linearGradient></defs></svg>